<?xml version="1.0" standalone="no"?><!DOCTYPE svg PUBLIC "-//W3C//DTD SVG 1.1//EN" "http://www.w3.org/Graphics/SVG/1.1/DTD/svg11.dtd"><svg t="1713838245002" class="icon" viewBox="0 0 1024 1024" version="1.1" xmlns="http://www.w3.org/2000/svg" p-id="10514" xmlns:xlink="http://www.w3.org/1999/xlink" width="16" height="16"><path d="M502.725485 341.333333m-188.685725 0a188.685725 188.685725 0 1 0 377.37145 0 188.685725 188.685725 0 1 0-377.37145 0Z" fill="#59d892" p-id="10515"></path><path d="M718.018936 594.379517a359.290042 359.290042 0 0 0-205.769537-64.344872c-198.271988 0-359.212105 159.833409-361.004658 357.700125l-0.015588 3.335708 0.015588 3.335708h3.335708l-0.015588-3.335708 0.015588-3.335708h415.342405a187.859591 187.859591 0 0 1-31.78275-104.856577c0-97.982525 74.694919-178.538314 170.261394-187.797242l0.233811-0.015587c1.231406-0.124699 2.4784-0.233811 3.725394-0.327336l0.109112 0.077937c1.93284-0.109112 3.86568-0.187049 5.814107-0.233811l-0.264986-0.202637z" fill="#59d892" p-id="10516"></path><path d="M813.2269 721.494931h-64.859256v-65.934789a35.757543 35.757543 0 1 0-71.515085 0v65.934789h-67.010321a35.757543 35.757543 0 1 0 0 71.515085h67.010321v65.934789a35.757543 35.757543 0 1 0 71.515085 0v-65.934789h64.859256a35.757543 35.757543 0 1 0 0-71.515085z" fill="#59d892" p-id="10517"></path></svg>