<?xml version="1.0" standalone="no"?><!DOCTYPE svg PUBLIC "-//W3C//DTD SVG 1.1//EN" "http://www.w3.org/Graphics/SVG/1.1/DTD/svg11.dtd"><svg t="1711505966582" class="icon" viewBox="0 0 1024 1024" version="1.1" xmlns="http://www.w3.org/2000/svg" p-id="32573" xmlns:xlink="http://www.w3.org/1999/xlink" width="256" height="256"><path d="M128 170.666667h768c23.466667 0 42.666667 19.2 42.666667 42.666666v640c0 23.466667-19.2 42.666667-42.666667 42.666667H128c-23.466667 0-42.666667-19.2-42.666667-42.666667V213.333333c0-23.466667 19.2-42.666667 42.666667-42.666666z" fill="#C0F8D2" p-id="32574"></path><path d="M85.333333 213.333333c0-23.466667 19.2-42.666667 42.666667-42.666666h768c23.466667 0 42.666667 19.2 42.666667 42.666666v170.666667H85.333333v-170.666667z" fill="#5ADB83" p-id="32575"></path><path d="M298.666667 85.333333h42.666666v170.666667h-42.666666zM682.666667 85.333333h42.666666v170.666667h-42.666666z" fill="#C0F8D2" p-id="32576"></path><path d="M467.2 680.533333l-89.6-89.6-29.866667 29.866667 104.533334 104.533333 14.933333 14.933334 211.2-211.2-29.866667-29.866667-181.333333 181.333333z" fill="#22C957" p-id="32577"></path></svg>