<?xml version="1.0" standalone="no"?><!DOCTYPE svg PUBLIC "-//W3C//DTD SVG 1.1//EN" "http://www.w3.org/Graphics/SVG/1.1/DTD/svg11.dtd"><svg t="1718259297192" class="icon" viewBox="0 0 1024 1024" version="1.1" xmlns="http://www.w3.org/2000/svg" p-id="6094" xmlns:xlink="http://www.w3.org/1999/xlink" width="200" height="200"><path d="M65.024 349.696s-3.072-21.504 21.504-21.504h159.744s167.936-181.248 331.264-242.176h59.392v854.016h-60.928s-186.368-70.656-329.728-244.224H82.944s-17.92 0-17.92-21.504V349.696z m0 0" fill="#F9DEE0" p-id="6095"></path><path d="M932.864 478.72h-133.12c-15.36 0-27.648 12.288-27.648 27.648 0 15.36 12.288 27.648 27.648 27.648h133.12c15.36 0 27.648-12.288 27.648-27.648 0-15.36-12.8-27.648-27.648-27.648zM780.8 658.432c-10.752-10.752-28.16-10.752-38.912 0-10.752 10.752-10.752 28.16 0 38.912l94.208 94.208c10.752 10.752 28.16 10.752 38.912 0 10.752-10.752 10.752-28.16 0-38.912l-94.208-94.208zM741.376 354.304c10.752 10.752 28.16 10.752 38.912 0l94.208-94.208c10.752-10.752 10.752-28.16 0-38.912-10.752-10.752-28.16-10.752-38.912 0l-94.208 94.208c-10.752 10.24-10.752 28.16 0 38.912z" fill="#BC1D21" p-id="6096"></path></svg>