<?xml version="1.0" standalone="no"?><!DOCTYPE svg PUBLIC "-//W3C//DTD SVG 1.1//EN" "http://www.w3.org/Graphics/SVG/1.1/DTD/svg11.dtd"><svg t="1718259787096" class="icon" viewBox="0 0 1024 1024" version="1.1" xmlns="http://www.w3.org/2000/svg" p-id="24866" xmlns:xlink="http://www.w3.org/1999/xlink" width="200" height="200"><path d="M890.88 1024H290.816c-41.984 0-75.776-33.792-75.776-75.776V201.728c0-41.984 33.792-75.776 75.776-75.776H890.88c41.984 0 75.776 33.792 75.776 75.776v745.472c0 43.008-33.792 76.8-75.776 76.8z" fill="#FAAFB1" p-id="24867"></path><path d="M775.168 913.408H122.88c-27.648 0-49.152-22.528-49.152-49.152v-798.72c0-27.648 22.528-49.152 49.152-49.152h652.288c27.648 0 49.152 22.528 49.152 49.152v798.72c0 27.648-21.504 49.152-49.152 49.152z" fill="#FFFFFF" p-id="24868"></path><path d="M748.544 929.792H149.504c-50.176 0-92.16-40.96-92.16-92.16V92.16c0-50.176 40.96-92.16 92.16-92.16h599.04c50.176 0 92.16 40.96 92.16 92.16v745.472c0 51.2-40.96 92.16-92.16 92.16zM149.504 31.744c-32.768 0-60.416 26.624-60.416 60.416v745.472c0 32.768 26.624 60.416 60.416 60.416h599.04c32.768 0 60.416-26.624 60.416-60.416V92.16c0-32.768-26.624-60.416-60.416-60.416H149.504z" fill="" p-id="24869"></path><path d="M163.84 204.8h359.424" fill="#FFFFFF" p-id="24870"></path><path d="M523.264 220.16H163.84c-8.192 0-15.36-7.168-15.36-15.36s7.168-15.36 15.36-15.36h359.424c8.192 0 15.36 7.168 15.36 15.36s-7.168 15.36-15.36 15.36z" fill="" p-id="24871"></path><path d="M163.84 377.856h497.664" fill="#FFFFFF" p-id="24872"></path><path d="M661.504 393.216H163.84c-8.192 0-15.36-7.168-15.36-15.36s7.168-15.36 15.36-15.36h497.664c8.192 0 15.36 7.168 15.36 15.36s-7.168 15.36-15.36 15.36z" fill="" p-id="24873"></path><path d="M163.84 550.912h414.72" fill="#FFFFFF" p-id="24874"></path><path d="M578.56 567.296H163.84c-8.192 0-15.36-7.168-15.36-15.36s7.168-15.36 15.36-15.36h414.72c8.192 0 15.36 7.168 15.36 15.36s-7.168 15.36-15.36 15.36z" fill="" p-id="24875"></path><path d="M163.84 723.968h566.272" fill="#FFFFFF" p-id="24876"></path><path d="M730.112 740.352H163.84c-8.192 0-15.36-7.168-15.36-15.36s7.168-15.36 15.36-15.36h567.296c8.192 0 15.36 7.168 15.36 15.36s-7.168 15.36-16.384 15.36z" fill="" p-id="24877"></path></svg>