<?xml version="1.0" standalone="no"?><!DOCTYPE svg PUBLIC "-//W3C//DTD SVG 1.1//EN" "http://www.w3.org/Graphics/SVG/1.1/DTD/svg11.dtd"><svg t="1711526403645" class="icon" viewBox="0 0 1024 1024" version="1.1" xmlns="http://www.w3.org/2000/svg" p-id="10891" xmlns:xlink="http://www.w3.org/1999/xlink" width="48" height="48"><path d="M198.63 902.52H180.2c-45.48 0-82.69-37.21-82.69-82.69V392.65c0-45.48 37.21-82.69 82.69-82.69h18.43c45.48 0 82.69 37.21 82.69 82.69v427.19c0 45.47-37.21 82.68-82.69 82.68z" fill="#F93A48" p-id="10892"></path><path d="M972.87 439.05c-27.8-51.64-79.27-86.49-137.83-86.49H510.66V207.6c0-49.69-41.36-90.35-91.91-90.35s-91.91 40.66-91.91 90.35v604.57c0 49.69 41.36 90.35 91.91 90.35h347.22c52.06 0 134.23-61.98 162.13-141.1 19.74-55.98 28.46-115.87 46.66-172.47l8.48-26.37c13.16-40.86 9.74-86.18-10.37-123.53z" fill="#FED8B3" p-id="10893"></path><path d="M555.63 356.21h279.41c58.56 0 110.03 34.86 137.83 86.49 20.11 37.35 23.53 82.67 10.39 123.55l-8.48 26.37c-18.2 56.6-26.92 116.49-46.66 172.47-27.9 79.12-110.06 141.1-162.13 141.1H418.75 531.3s-44.31-15.6 21.95-30.02 269.79 22.81 305.29-100.5 124.73-307.44 10.79-359.43-214.31 4.44-313.7-60.03z" fill="#FCBA83" opacity=".26" p-id="10894"></path><path d="M555.63 356.21h279.41c58.56 0 110.03 34.86 137.83 86.49 20.11 37.35 23.53 82.67 10.39 123.55l-8.48 26.37c-18.2 56.6-26.92 116.49-46.66 172.47-27.9 79.12-110.06 141.1-162.13 141.1H418.75 531.3s-32.48-47.73 33.79-62.15 182.05 42.05 217.55-81.26 75.59-294.66 12.01-346.54c-97.03-79.19-139.63 4.44-239.02-60.03z" fill="#FCBA83" opacity=".2" p-id="10895"></path><path d="M202.93 870.46h-44.14c-31.24 0-56.56-25.32-56.56-56.56V379.76c0-31.24 25.32-56.56 56.56-56.56h44.14c31.24 0 56.56 25.32 56.56 56.56v434.13c0 31.24-25.32 56.57-56.56 56.57z" fill="#FF5C70" opacity=".61" p-id="10896"></path><path d="M178.5 771.9h-12.61c-31.24 0-56.56-25.32-56.56-56.56V370.87c0-31.24 25.32-56.56 56.56-56.56h12.61c31.24 0 56.56 25.32 56.56 56.56v344.47c0 31.24-25.32 56.56-56.56 56.56z" fill="#FC8398" opacity=".59" p-id="10897"></path><path d="M124.14 454.12a56.72 55.76 0 1 0 113.44 0 56.72 55.76 0 1 0-113.44 0Z" fill="#F7BC86" p-id="10898"></path><path d="M131.73 450.82a49.16 48.33 0 1 0 98.32 0 49.16 48.33 0 1 0-98.32 0Z" fill="#F9D5B7" opacity=".77" p-id="10899"></path><path d="M131.7 441.84a40.03 39.35 0 1 0 80.06 0 40.03 39.35 0 1 0-80.06 0Z" fill="#FFFEFD" p-id="10900"></path><path d="M771.04 587.91c4.83 1.25 50.92 8.49 99.07 8.62 78.7 0.23 106.05-12.86 108.3-18.52l-11.44 35.67s-24.74 12.07-93.35 12.35c-1.33 0.01-2.66 0.01-4.01 0-49.1-0.18-98.27-7.47-106.45-9.65-9.46-2.53-12.65-10.52-11.61-16.87 0.01 0 3.36-14.23 19.49-11.6zM734.56 724.65c4.83 1.25 50.92 8.49 99.07 8.62 78.7 0.23 106.05-12.86 108.3-18.52l-11.44 35.67s-24.74 12.07-93.35 12.35c-1.33 0.01-2.66 0.01-4.01 0-49.1-0.18-98.27-7.47-106.45-9.65-9.46-2.53-12.65-10.52-11.61-16.87 0.01 0 3.36-14.23 19.49-11.6z" fill="#F9A369" opacity=".59" p-id="10901"></path><path d="M775.49 571.96c4.83 1.25 50.92 8.49 99.07 8.62 78.7 0.23 106.05-12.86 108.3-18.52l-11.44 35.67s-24.74 12.07-93.35 12.35c-1.33 0.01-2.66 0.01-4.01 0-49.1-0.18-98.27-7.47-106.45-9.65-9.46-2.53-12.65-10.52-11.61-16.87 0.01 0 3.36-14.23 19.49-11.6zM739.01 708.7c4.83 1.25 50.92 8.49 99.07 8.62 78.7 0.23 106.05-12.86 108.3-18.52l-11.44 35.67s-24.74 12.07-93.35 12.35c-1.33 0.01-2.66 0.01-4.01 0-49.1-0.18-98.27-7.47-106.45-9.65-9.46-2.53-12.65-10.52-11.61-16.87 0.01 0 3.36-14.23 19.49-11.6z" fill="#F9A369" p-id="10902"></path><path d="M427.4 672.54h-34.34c-31.25 0-56.83-25.57-56.83-56.83V182.32c0-31.25 25.57-56.83 56.83-56.83h34.34c31.25 0 56.83 25.57 56.83 56.83v433.39c-0.01 31.26-25.58 56.83-56.83 56.83z" fill="#FFF5EE" opacity=".14" p-id="10903"></path><path d="M422.95 302.78h-34.34c-31.25 0-56.83-25.57-56.83-56.83v-68c0-31.25 25.57-56.83 56.83-56.83h34.34c31.25 0 56.83 25.57 56.83 56.83v68c0 31.26-25.58 56.83-56.83 56.83z" fill="#FFF5EE" opacity=".31" p-id="10904"></path></svg>