<?xml version="1.0" standalone="no"?><!DOCTYPE svg PUBLIC "-//W3C//DTD SVG 1.1//EN" "http://www.w3.org/Graphics/SVG/1.1/DTD/svg11.dtd"><svg t="1711615580271" class="icon" viewBox="0 0 1122 1024" version="1.1" xmlns="http://www.w3.org/2000/svg" p-id="29416" xmlns:xlink="http://www.w3.org/1999/xlink" width="17.53125" height="16"><path d="M588.214513 392.143009H0V156.857204A156.857204 156.857204 0 0 1 156.857204 0h274.500106l156.857203 156.857204z" fill="#F5834A" p-id="29417"></path><path d="M0 156.857204m156.857204 0l803.893168 0q156.857204 0 156.857203 156.857203l0 549.000213q0 156.857204-156.857203 156.857203l-803.893168 0q-156.857204 0-156.857204-156.857203l0-549.000213q0-156.857204 156.857204-156.857203Z" fill="#AFE1FA" p-id="29418"></path><path d="M254.892956 754.875292h627.428814a78.428602 78.428602 0 0 1 78.428602 78.428602H176.464354a78.428602 78.428602 0 0 1 78.428602-78.428602z" fill="#F5834A" p-id="29419"></path></svg>