<?xml version="1.0" standalone="no"?><!DOCTYPE svg PUBLIC "-//W3C//DTD SVG 1.1//EN" "http://www.w3.org/Graphics/SVG/1.1/DTD/svg11.dtd"><svg t="1711511667964" class="icon" viewBox="0 0 1207 1024" version="1.1" xmlns="http://www.w3.org/2000/svg" p-id="39682" width="56.578125" height="48" xmlns:xlink="http://www.w3.org/1999/xlink"><path d="M645.681548 792.774194v-33.032259h231.225807v-82.580645h-99.096774l-16.516129 49.548387h-115.612904l-8.043354-46.146064h30.835612l29.117936-98.337032h113.597935L794.32671 627.612903h82.580645v-49.548387h115.612903v49.548387h198.193548v49.548387h-198.193548v82.580645h214.709677v33.032259h-561.548387z m528.516129-330.322581h-82.580645V214.709677h-49.548387v247.741936h-99.096774v-49.548387h33.032258V16.516129h214.709677v49.548387l-134.639483 1.519484L1058.584774 148.645161h148.645161v66.064516h-33.032258v247.741936z m-247.741935-33.032258v33.032258h-66.064516v-148.645161h49.548387v115.612903h16.516129z m-99.096774 33.032258h-165.161291v-33.032258h16.516129v-115.612903h49.548388v115.612903h16.516129v-148.645161h-99.096775v-33.032259h99.096775v-49.548387h-99.096775V148.645161h33.032258V82.580645h-33.032258V49.548387h99.096775V0h99.096774v49.548387h99.096774v33.032258h-33.032258v66.064516h33.032258v49.548387h-115.612903v49.548387h115.612903v33.032259h-115.612903v181.677419z m0-379.870968h-66.064516v66.064516h66.064516V82.580645zM443.60671 777.711484l-59.937033-132.90529H204.436645L232.778323 594.580645h247.741935l60.135226 134.854194h26.83871l-13.708388 48.276645h-110.179096zM315.358968 462.451613v-49.548387a454.044903 454.044903 0 0 0 54.040774-23.122581c-23.403355-23.122581-28.952774-46.245161-37.524645-75.974193h82.580645a71.828645 71.828645 0 0 0 21.173677 35.509677A115.612903 115.612903 0 0 0 464.004129 297.290323h-148.645161v-49.548388h247.741935a224.933161 224.933161 0 0 1-58.979097 142.03871 312.270452 312.270452 0 0 0 58.979097 23.122581v49.548387a306.176 306.176 0 0 1-125.770322-24.328258c-33.098323 15.492129-76.866065 18.365935-121.971613 24.328258z m-33.032258-66.064516h16.516129v49.548387h-16.516129v16.516129h-82.580645v-16.516129h-198.193549v-49.548387h33.032258V231.225806h-33.032258v-33.032258h561.548387v33.032258h-280.774193v165.161291z m-82.580645-148.645162h-82.580646v16.51613h82.580646v-16.51613z m0 66.064517h-82.580646v16.516129h82.580646v-16.516129z m0 66.064516h-82.580646v16.516129h82.580646v-16.516129z m231.225806-264.258065h-297.290323v16.516129h264.258065v33.032258h-363.354839V0h512v165.16129h-115.612903V115.612903z m0-66.064516h-297.290323v16.516129h297.290323V49.548387z m-346.83871 545.032258h115.612904l-75.809033 183.130839H12.056774l-11.990709-48.276645h22.263741z m82.580645 148.645161h132.129033l-98.981162 215.073033h203.148388L364.907355 1007.483871h-346.83871l-6.606451-49.185032H69.698065z m330.322581 115.612904l66.064516 148.645161h-132.129032l-66.064516-148.645161h132.129032z m693.677419 165.16129h-115.612903v-132.129032h-297.290322v66.064516h280.774193v66.064516h-396.387097V825.806452h528.516129v198.193548z" fill="#1EBF97" p-id="39683"></path></svg>