<?xml version="1.0" standalone="no"?><!DOCTYPE svg PUBLIC "-//W3C//DTD SVG 1.1//EN" "http://www.w3.org/Graphics/SVG/1.1/DTD/svg11.dtd"><svg t="1711614062814" class="icon" viewBox="0 0 1024 1024" version="1.1" xmlns="http://www.w3.org/2000/svg" p-id="13432" xmlns:xlink="http://www.w3.org/1999/xlink" width="16" height="16"><path d="M224.57 65.81v394.51h-124.3c-21.83 0-39.55-17.44-39.55-38.95V262.26c0-53.52 16.53-103.2 50.21-140 28.43-31 67-50.57 112.26-56.3z" fill="#FFB312" p-id="13433"></path><path d="M963.29 261.25V922.5a38.71 38.71 0 0 1-17.07 30.41 40.16 40.16 0 0 1-36.48 4.33l-7.14-3.11-284.3-123.71-1.15-0.5-292.62 127.29a40 40 0 0 1-36.53-4.33 38.74 38.74 0 0 1-17.11-32v-855a226.66 226.66 0 0 1 27-1.59h474.64c45.34 0 81.84 12.07 110.39 32.08 28.15 19.77 46.25 45.61 57.75 69.91a243.44 243.44 0 0 1 22.62 95z" fill="#FFD322" p-id="13434"></path><path d="M963.29 261.25v353.34C883.17 294 644.75 138.31 460.21 64.22h312.32c45.34 0 81.84 12.07 110.39 32.08 28.15 19.77 46.25 45.61 57.75 69.91a243.44 243.44 0 0 1 22.62 95z" fill="#FCCA00" p-id="13435"></path><path d="M224.57 65.81v394.51h-7.46C188.65 217.81 200.45 141.8 223.19 66z" fill="#F79D4A" p-id="13436"></path><path d="M344.48 391.39c0-21.51 17.68-38.93 39.54-38.93h340.33c21.85 0 39.54 17.42 39.54 38.93s-17.69 38.94-39.54 38.94H384c-21.83 0-39.54-17.4-39.54-38.94zM344.48 550.5c0-21.51 17.68-38.93 39.54-38.93h151.27c21.83 0 39.54 17.42 39.54 38.93s-17.71 38.93-39.54 38.93H384c-21.83 0-39.54-17.42-39.54-38.93z" fill="#FFF0B3" p-id="13437"></path><path d="M270.91 912.77v-847s73.54 458.03 0 847z" fill="#FAC800" p-id="13438"></path></svg>